<?xml version="1.0" encoding="UTF-8" standalone="no"?>
<!DOCTYPE svg PUBLIC "-//W3C//DTD SVG 1.1//EN"
 "http://www.w3.org/Graphics/SVG/1.1/DTD/svg11.dtd">
<!-- Generated by graphviz version 14.0.0 (20250921.2048)
 -->
<!-- Title: G Pages: 1 -->
<svg width="1194pt" height="813pt"
 viewBox="0.00 0.00 1194.00 813.00" xmlns="http://www.w3.org/2000/svg" xmlns:xlink="http://www.w3.org/1999/xlink">
<g id="graph0" class="graph" transform="scale(1 1) rotate(0) translate(4 809.17)">
<title>G</title><style>.edge>path:hover{stroke-width:8}</style>
<polygon fill="white" stroke="none" points="-4,4 -4,-809.17 1190.1,-809.17 1190.1,4 -4,4"/>
<!-- flask -->
<g id="node1" class="node">
<title>flask</title><style>.edge>path:hover{stroke-width:8}</style>
<ellipse fill="#d92626" stroke="black" cx="373" cy="-636.04" rx="27" ry="18"/>
<text xml:space="preserve" text-anchor="middle" x="373" y="-632.16" font-family="Helvetica,sans-Serif" font-size="10.00" fill="#ffffff">flask</text>
</g>
<!-- module_4_src_app_pages -->
<g id="node8" class="node">
<title>module_4_src_app_pages</title><style>.edge>path:hover{stroke-width:8}</style>
<ellipse fill="#44822b" stroke="black" cx="655" cy="-375.52" rx="43.13" ry="37.48"/>
<text xml:space="preserve" text-anchor="middle" x="655" y="-388.52" font-family="Helvetica,sans-Serif" font-size="10.00" fill="#ffffff">module_4.</text>
<text xml:space="preserve" text-anchor="middle" x="655" y="-377.27" font-family="Helvetica,sans-Serif" font-size="10.00" fill="#ffffff">src.</text>
<text xml:space="preserve" text-anchor="middle" x="655" y="-366.02" font-family="Helvetica,sans-Serif" font-size="10.00" fill="#ffffff">app.</text>
<text xml:space="preserve" text-anchor="middle" x="655" y="-354.77" font-family="Helvetica,sans-Serif" font-size="10.00" fill="#ffffff">pages</text>
</g>
<!-- flask&#45;&gt;module_4_src_app_pages -->
<g id="edge1" class="edge">
<title>flask&#45;&gt;module_4_src_app_pages</title><style>.edge>path:hover{stroke-width:8}</style>
<path fill="none" stroke="black" d="M695,-448.99C693.32,-438.14 689.08,-427.3 683.96,-417.44"/>
<polygon fill="#d92626" stroke="black" points="687.08,-415.86 679.11,-408.88 680.99,-419.3 687.08,-415.86"/>
<path fill="none" stroke="black" d="M393.97,-624.1C398.82,-621.87 404.02,-619.69 409,-618.04 485.18,-592.71 544.49,-650.75 586,-582.04"/>
<path fill="none" stroke="black" d="M586,-581.04C611.47,-538.88 609.33,-521.94 643,-485.99 662.22,-465.48 699.29,-477.77 695,-449.99"/>
</g>
<!-- module_5_src_app_app -->
<g id="node13" class="node">
<title>module_5_src_app_app</title><style>.edge>path:hover{stroke-width:8}</style>
<ellipse fill="#3db883" stroke="black" cx="293" cy="-264.56" rx="43.13" ry="37.48"/>
<text xml:space="preserve" text-anchor="middle" x="293" y="-277.56" font-family="Helvetica,sans-Serif" font-size="10.00" fill="#000000">module_5.</text>
<text xml:space="preserve" text-anchor="middle" x="293" y="-266.31" font-family="Helvetica,sans-Serif" font-size="10.00" fill="#000000">src.</text>
<text xml:space="preserve" text-anchor="middle" x="293" y="-255.06" font-family="Helvetica,sans-Serif" font-size="10.00" fill="#000000">app.</text>
<text xml:space="preserve" text-anchor="middle" x="293" y="-243.81" font-family="Helvetica,sans-Serif" font-size="10.00" fill="#000000">app</text>
</g>
<!-- flask&#45;&gt;module_5_src_app_app -->
<g id="edge2" class="edge">
<title>flask&#45;&gt;module_5_src_app_app</title><style>.edge>path:hover{stroke-width:8}</style>
<path fill="none" stroke="black" d="M364,-448.99C349.7,-401.05 364.3,-384.2 345,-338.04 340.11,-326.34 333.02,-314.7 325.65,-304.29"/>
<polygon fill="#d92626" stroke="black" points="328.51,-302.27 319.75,-296.32 322.88,-306.44 328.51,-302.27"/>
</g>
<!-- module_5_src_app_pages -->
<g id="node14" class="node">
<title>module_5_src_app_pages</title><style>.edge>path:hover{stroke-width:8}</style>
<ellipse fill="#267352" stroke="black" cx="293" cy="-375.52" rx="43.13" ry="37.48"/>
<text xml:space="preserve" text-anchor="middle" x="293" y="-388.52" font-family="Helvetica,sans-Serif" font-size="10.00" fill="#ffffff">module_5.</text>
<text xml:space="preserve" text-anchor="middle" x="293" y="-377.27" font-family="Helvetica,sans-Serif" font-size="10.00" fill="#ffffff">src.</text>
<text xml:space="preserve" text-anchor="middle" x="293" y="-366.02" font-family="Helvetica,sans-Serif" font-size="10.00" fill="#ffffff">app.</text>
<text xml:space="preserve" text-anchor="middle" x="293" y="-354.77" font-family="Helvetica,sans-Serif" font-size="10.00" fill="#ffffff">pages</text>
</g>
<!-- flask&#45;&gt;module_5_src_app_pages -->
<g id="edge3" class="edge">
<title>flask&#45;&gt;module_5_src_app_pages</title><style>.edge>path:hover{stroke-width:8}</style>
<path fill="none" stroke="black" d="M374.15,-617.67C375.9,-584.57 377.74,-510.37 364,-449.99"/>
<path fill="none" stroke="black" d="M364,-448.99C359.09,-432.54 347.62,-418.1 335.3,-406.54"/>
<polygon fill="#d92626" stroke="black" points="337.67,-403.96 327.85,-400 333.06,-409.22 337.67,-403.96"/>
</g>
<!-- module_2 -->
<g id="node2" class="node">
<title>module_2</title><style>.edge>path:hover{stroke-width:8}</style>
<ellipse fill="#f3d416" stroke="black" cx="624" cy="-708.04" rx="34.32" ry="18"/>
<text xml:space="preserve" text-anchor="middle" x="624" y="-704.16" font-family="Helvetica,sans-Serif" font-size="10.00" fill="#000000">module_2</text>
</g>
<!-- module_2&#45;&gt;module_4_src_app_pages -->
<g id="edge4" class="edge">
<title>module_2&#45;&gt;module_4_src_app_pages</title><style>.edge>path:hover{stroke-width:8}</style>
<path fill="none" stroke="black" d="M610.53,-691.09C589.77,-664.56 555.38,-611.39 586,-582.04"/>
</g>
<!-- module_4_src_load_data -->
<g id="node9" class="node">
<title>module_4_src_load_data</title><style>.edge>path:hover{stroke-width:8}</style>
<ellipse fill="#5cb03a" stroke="black" cx="695" cy="-515.52" rx="43.13" ry="29.52"/>
<text xml:space="preserve" text-anchor="middle" x="695" y="-522.89" font-family="Helvetica,sans-Serif" font-size="10.00" fill="#000000">module_4.</text>
<text xml:space="preserve" text-anchor="middle" x="695" y="-511.64" font-family="Helvetica,sans-Serif" font-size="10.00" fill="#000000">src.</text>
<text xml:space="preserve" text-anchor="middle" x="695" y="-500.39" font-family="Helvetica,sans-Serif" font-size="10.00" fill="#000000">load_data</text>
</g>
<!-- module_2&#45;&gt;module_4_src_load_data -->
<g id="edge5" class="edge">
<title>module_2&#45;&gt;module_4_src_load_data</title><style>.edge>path:hover{stroke-width:8}</style>
<path fill="none" stroke="black" d="M630.3,-690.13C641.52,-660.01 665.24,-596.38 680.63,-555.08"/>
<polygon fill="#f3d416" stroke="black" points="683.89,-556.34 684.11,-545.75 677.33,-553.9 683.89,-556.34"/>
</g>
<!-- module_2&#45;&gt;module_5_src_app_pages -->
<g id="edge6" class="edge">
<title>module_2&#45;&gt;module_5_src_app_pages</title><style>.edge>path:hover{stroke-width:8}</style>
<path fill="none" stroke="black" d="M590.14,-704.03C521.07,-697.44 366.58,-680.17 321,-654.04 284.61,-633.18 278.28,-619.78 260,-582.04"/>
<path fill="none" stroke="black" d="M260,-581.04C235.2,-544.32 183.92,-560.82 184,-516.52"/>
</g>
<!-- module_5_src_load_data -->
<g id="node15" class="node">
<title>module_5_src_load_data</title><style>.edge>path:hover{stroke-width:8}</style>
<ellipse fill="#3ab07e" stroke="black" cx="255" cy="-515.52" rx="43.13" ry="29.52"/>
<text xml:space="preserve" text-anchor="middle" x="255" y="-522.89" font-family="Helvetica,sans-Serif" font-size="10.00" fill="#000000">module_5.</text>
<text xml:space="preserve" text-anchor="middle" x="255" y="-511.64" font-family="Helvetica,sans-Serif" font-size="10.00" fill="#000000">src.</text>
<text xml:space="preserve" text-anchor="middle" x="255" y="-500.39" font-family="Helvetica,sans-Serif" font-size="10.00" fill="#000000">load_data</text>
</g>
<!-- module_2&#45;&gt;module_5_src_load_data -->
<g id="edge7" class="edge">
<title>module_2&#45;&gt;module_5_src_load_data</title><style>.edge>path:hover{stroke-width:8}</style>
<path fill="none" stroke="black" d="M260,-581.04C256.36,-573.53 254.42,-564.95 253.48,-556.55"/>
<polygon fill="#f3d416" stroke="black" points="256.99,-556.6 252.87,-546.84 250.01,-557.04 256.99,-556.6"/>
</g>
<!-- module_5_tests_test_db_insert -->
<g id="node20" class="node">
<title>module_5_tests_test_db_insert</title><style>.edge>path:hover{stroke-width:8}</style>
<ellipse fill="#378161" stroke="black" cx="707" cy="-29.52" rx="54.8" ry="29.52"/>
<text xml:space="preserve" text-anchor="middle" x="707" y="-36.9" font-family="Helvetica,sans-Serif" font-size="10.00" fill="#ffffff">module_5.</text>
<text xml:space="preserve" text-anchor="middle" x="707" y="-25.65" font-family="Helvetica,sans-Serif" font-size="10.00" fill="#ffffff">tests.</text>
<text xml:space="preserve" text-anchor="middle" x="707" y="-14.4" font-family="Helvetica,sans-Serif" font-size="10.00" fill="#ffffff">test_db_insert</text>
</g>
<!-- module_2&#45;&gt;module_5_tests_test_db_insert -->
<g id="edge8" class="edge">
<title>module_2&#45;&gt;module_5_tests_test_db_insert</title><style>.edge>path:hover{stroke-width:8}</style>
<path fill="none" stroke="black" d="M640.86,-692.06C670.23,-665.18 731.17,-605.88 768,-545.04 791.39,-506.4 773.39,-483.21 804,-449.99"/>
</g>
<!-- module_5_tests_test_integration_end_to_end -->
<g id="node22" class="node">
<title>module_5_tests_test_integration_end_to_end</title><style>.edge>path:hover{stroke-width:8}</style>
<ellipse fill="#378161" stroke="black" cx="536" cy="-29.52" rx="97.76" ry="29.52"/>
<text xml:space="preserve" text-anchor="middle" x="536" y="-36.9" font-family="Helvetica,sans-Serif" font-size="10.00" fill="#ffffff">module_5.</text>
<text xml:space="preserve" text-anchor="middle" x="536" y="-25.65" font-family="Helvetica,sans-Serif" font-size="10.00" fill="#ffffff">tests.</text>
<text xml:space="preserve" text-anchor="middle" x="536" y="-14.4" font-family="Helvetica,sans-Serif" font-size="10.00" fill="#ffffff">test_integration_end_to_end</text>
</g>
<!-- module_2&#45;&gt;module_5_tests_test_integration_end_to_end -->
<g id="edge9" class="edge">
<title>module_2&#45;&gt;module_5_tests_test_integration_end_to_end</title><style>.edge>path:hover{stroke-width:8}</style>
<path fill="none" stroke="black" d="M603.93,-692.94C592,-683.4 577.73,-669.71 570,-654.04 535.15,-583.36 531.79,-380.7 527,-302.04 524.98,-268.79 517.55,-259.03 527,-227.09 531.92,-210.45 620.45,-111.2 612,-96.04"/>
<path fill="none" stroke="black" d="M612,-95.04C604.74,-83.64 594.83,-73.19 584.56,-64.17"/>
<polygon fill="#f3d416" stroke="black" points="586.99,-61.63 577.07,-57.91 582.5,-67 586.99,-61.63"/>
</g>
<!-- module_2_clean -->
<g id="node3" class="node">
<title>module_2_clean</title><style>.edge>path:hover{stroke-width:8}</style>
<ellipse fill="#f3d20c" stroke="black" cx="746" cy="-708.04" rx="49.85" ry="18"/>
<text xml:space="preserve" text-anchor="middle" x="746" y="-704.16" font-family="Helvetica,sans-Serif" font-size="10.00" fill="#000000">module_2.clean</text>
</g>
<!-- module_2_clean&#45;&gt;module_4_src_app_pages -->
<g id="edge10" class="edge">
<title>module_2_clean&#45;&gt;module_4_src_app_pages</title><style>.edge>path:hover{stroke-width:8}</style>
<path fill="none" stroke="black" d="M766,-581.04C755.24,-539.32 770.65,-522 747,-485.99 731.57,-462.5 701.92,-477.24 695,-449.99"/>
</g>
<!-- module_2_clean&#45;&gt;module_4_src_load_data -->
<g id="edge11" class="edge">
<title>module_2_clean&#45;&gt;module_4_src_load_data</title><style>.edge>path:hover{stroke-width:8}</style>
<path fill="none" stroke="black" d="M766,-581.04C761.94,-564.9 750.22,-551.52 737.46,-541.22"/>
<polygon fill="#f3d20c" stroke="black" points="739.86,-538.64 729.74,-535.48 735.68,-544.26 739.86,-538.64"/>
<path fill="none" stroke="black" d="M753.1,-689.86C762.15,-665.59 775.55,-619.97 766,-582.04"/>
</g>
<!-- module_2_clean&#45;&gt;module_5_src_app_pages -->
<g id="edge12" class="edge">
<title>module_2_clean&#45;&gt;module_5_src_app_pages</title><style>.edge>path:hover{stroke-width:8}</style>
<path fill="none" stroke="black" d="M326,-581.04C313.65,-539.77 336.1,-517.76 307,-485.99 268.52,-444 154.06,-498.45 184,-449.99"/>
</g>
<!-- module_2_clean&#45;&gt;module_5_src_load_data -->
<g id="edge13" class="edge">
<title>module_2_clean&#45;&gt;module_5_src_load_data</title><style>.edge>path:hover{stroke-width:8}</style>
<path fill="none" stroke="black" d="M326,-581.04C323.07,-564.38 311.3,-550.78 298.15,-540.44"/>
<polygon fill="#f3d20c" stroke="black" points="300.31,-537.68 290.15,-534.68 296.22,-543.36 300.31,-537.68"/>
<path fill="none" stroke="black" d="M705.15,-697.41C692.93,-694.75 679.46,-692.05 667,-690.04 594.18,-678.26 390.27,-705.07 337,-654.04 313.62,-631.64 331.6,-613.92 326,-582.04"/>
</g>
<!-- module_2_clean&#45;&gt;module_5_tests_test_db_insert -->
<g id="edge14" class="edge">
<title>module_2_clean&#45;&gt;module_5_tests_test_db_insert</title><style>.edge>path:hover{stroke-width:8}</style>
<path fill="none" stroke="black" d="M774.22,-692.8C789.43,-683.72 807.23,-670.55 818,-654.04 887.05,-548.19 850.29,-499.36 880,-376.52"/>
</g>
<!-- module_2_clean&#45;&gt;module_5_tests_test_integration_end_to_end -->
<g id="edge15" class="edge">
<title>module_2_clean&#45;&gt;module_5_tests_test_integration_end_to_end</title><style>.edge>path:hover{stroke-width:8}</style>
<path fill="none" stroke="black" d="M650,-263.56C660.21,-187.9 653.01,-160.44 612,-96.04"/>
<path fill="none" stroke="black" d="M733.25,-690.42C711.97,-662.01 668.99,-601.68 643,-545.04 603.92,-459.88 572.59,-426.67 603,-338.04 609.58,-318.87 620.05,-319.1 631,-302.04 640.87,-286.66 648.12,-283.75 650,-265.56"/>
</g>
<!-- module_2_scrape -->
<g id="node4" class="node">
<title>module_2_scrape</title><style>.edge>path:hover{stroke-width:8}</style>
<ellipse fill="#ceb93b" stroke="black" cx="746" cy="-783.6" rx="43.13" ry="21.57"/>
<text xml:space="preserve" text-anchor="middle" x="746" y="-785.35" font-family="Helvetica,sans-Serif" font-size="10.00" fill="#000000">module_2.</text>
<text xml:space="preserve" text-anchor="middle" x="746" y="-774.1" font-family="Helvetica,sans-Serif" font-size="10.00" fill="#000000">scrape</text>
</g>
<!-- module_2_scrape&#45;&gt;module_2_clean -->
<g id="edge16" class="edge">
<title>module_2_scrape&#45;&gt;module_2_clean</title><style>.edge>path:hover{stroke-width:8}</style>
<path fill="none" stroke="black" d="M746,-761.72C746,-754.27 746,-745.75 746,-737.76"/>
<polygon fill="#ceb93b" stroke="black" points="749.5,-737.76 746,-727.76 742.5,-737.76 749.5,-737.76"/>
</g>
<!-- module_2_scrape&#45;&gt;module_4_src_app_pages -->
<g id="edge17" class="edge">
<title>module_2_scrape&#45;&gt;module_4_src_app_pages</title><style>.edge>path:hover{stroke-width:8}</style>
<path fill="none" stroke="black" d="M775.41,-767.52C814.85,-744.93 880,-698.35 880,-637.04 499,0 499,0 880,-581.04 880,-486.96 770.96,-424.75 704.69,-395.63"/>
<polygon fill="#ceb93b" stroke="black" points="706.41,-392.56 695.84,-391.84 703.65,-398.99 706.41,-392.56"/>
</g>
<!-- module_2_scrape&#45;&gt;module_5_src_app_pages -->
<g id="edge18" class="edge">
<title>module_2_scrape&#45;&gt;module_5_src_app_pages</title><style>.edge>path:hover{stroke-width:8}</style>
<path fill="none" stroke="black" d="M184,-448.99C198.29,-426.7 222.16,-409.68 243.92,-397.76"/>
<polygon fill="#ceb93b" stroke="black" points="245.47,-400.9 252.72,-393.17 242.23,-394.69 245.47,-400.9"/>
<path fill="none" stroke="black" d="M703.48,-778.86C545.32,-764.39 0,-709.24 0,-637.04 499,0 499,0 0,-581.04 0,-531.78 17.89,-515.94 57,-485.99 103.58,-450.33 152.34,-499.39 184,-449.99"/>
</g>
<!-- module_4 -->
<g id="node5" class="node">
<title>module_4</title><style>.edge>path:hover{stroke-width:8}</style>
<ellipse fill="#65ce3b" stroke="black" cx="818" cy="-264.56" rx="34.32" ry="18"/>
<text xml:space="preserve" text-anchor="middle" x="818" y="-260.69" font-family="Helvetica,sans-Serif" font-size="10.00" fill="#000000">module_4</text>
</g>
<!-- module_4&#45;&gt;module_5_tests_test_db_insert -->
<g id="edge19" class="edge">
<title>module_4&#45;&gt;module_5_tests_test_db_insert</title><style>.edge>path:hover{stroke-width:8}</style>
<path fill="none" stroke="black" d="M837.07,-249.18C859.39,-230.45 891.88,-196.12 880,-162.57"/>
<path fill="none" stroke="black" d="M880,-160.57C862.71,-111.76 804.84,-142.99 783,-96.04"/>
</g>
<!-- module_4&#45;&gt;module_5_tests_test_integration_end_to_end -->
<g id="edge20" class="edge">
<title>module_4&#45;&gt;module_5_tests_test_integration_end_to_end</title><style>.edge>path:hover{stroke-width:8}</style>
<path fill="none" stroke="black" d="M801.43,-248.48C783.19,-231.47 755.68,-204.42 750,-191.09 741.7,-171.63 757.5,-113.1 745,-96.04"/>
<path fill="none" stroke="black" d="M745,-95.04C740.48,-89.86 674.11,-69.87 617.36,-53.5"/>
<polygon fill="#65ce3b" stroke="black" points="618.56,-50.2 607.98,-50.8 616.62,-56.93 618.56,-50.2"/>
</g>
<!-- module_4_src -->
<g id="node6" class="node">
<title>module_4_src</title><style>.edge>path:hover{stroke-width:8}</style>
<ellipse fill="#65ce3b" stroke="black" cx="722" cy="-264.56" rx="44.08" ry="18"/>
<text xml:space="preserve" text-anchor="middle" x="722" y="-260.69" font-family="Helvetica,sans-Serif" font-size="10.00" fill="#000000">module_4.src</text>
</g>
<!-- module_4_src&#45;&gt;module_5_tests_test_db_insert -->
<g id="edge21" class="edge">
<title>module_4_src&#45;&gt;module_5_tests_test_db_insert</title><style>.edge>path:hover{stroke-width:8}</style>
<path fill="none" stroke="black" d="M688,-160.57C683.52,-109.72 804.52,-142.32 783,-96.04"/>
<path fill="none" stroke="black" d="M783,-95.04C776.36,-80.77 764.85,-68.5 752.77,-58.61"/>
<polygon fill="#65ce3b" stroke="black" points="755.19,-56.06 745.13,-52.75 750.93,-61.61 755.19,-56.06"/>
</g>
<!-- module_4_src&#45;&gt;module_5_tests_test_integration_end_to_end -->
<g id="edge22" class="edge">
<title>module_4_src&#45;&gt;module_5_tests_test_integration_end_to_end</title><style>.edge>path:hover{stroke-width:8}</style>
<path fill="none" stroke="black" d="M688,-160.57C684.11,-116.43 633.57,-134.75 612,-96.04"/>
<path fill="none" stroke="black" d="M713.51,-246.59C704.36,-226.95 690.71,-193.34 688,-162.57"/>
</g>
<!-- module_4_src_app -->
<g id="node7" class="node">
<title>module_4_src_app</title><style>.edge>path:hover{stroke-width:8}</style>
<ellipse fill="#64c040" stroke="black" cx="579" cy="-264.56" rx="43.13" ry="29.52"/>
<text xml:space="preserve" text-anchor="middle" x="579" y="-271.94" font-family="Helvetica,sans-Serif" font-size="10.00" fill="#000000">module_4.</text>
<text xml:space="preserve" text-anchor="middle" x="579" y="-260.69" font-family="Helvetica,sans-Serif" font-size="10.00" fill="#000000">src.</text>
<text xml:space="preserve" text-anchor="middle" x="579" y="-249.44" font-family="Helvetica,sans-Serif" font-size="10.00" fill="#000000">app</text>
</g>
<!-- module_4_src_app&#45;&gt;module_5_tests_test_db_insert -->
<g id="edge23" class="edge">
<title>module_4_src_app&#45;&gt;module_5_tests_test_db_insert</title><style>.edge>path:hover{stroke-width:8}</style>
<path fill="none" stroke="black" d="M612,-160.57C623.35,-123.24 650.55,-87.96 672.96,-63.59"/>
<polygon fill="#64c040" stroke="black" points="675.29,-66.22 679.61,-56.55 670.2,-61.42 675.29,-66.22"/>
</g>
<!-- module_4_src_app&#45;&gt;module_5_tests_test_integration_end_to_end -->
<g id="edge24" class="edge">
<title>module_4_src_app&#45;&gt;module_5_tests_test_integration_end_to_end</title><style>.edge>path:hover{stroke-width:8}</style>
<path fill="none" stroke="black" d="M612,-160.57C620.34,-133.13 625.96,-121.09 612,-96.04"/>
<path fill="none" stroke="black" d="M588.56,-235.36C595.32,-215.16 604.49,-187.27 612,-162.57"/>
</g>
<!-- module_4_src_app_pages&#45;&gt;module_5_tests_test_db_insert -->
<g id="edge25" class="edge">
<title>module_4_src_app_pages&#45;&gt;module_5_tests_test_db_insert</title><style>.edge>path:hover{stroke-width:8}</style>
<path fill="none" stroke="black" d="M880,-263.56C897.32,-222.15 894.99,-204.88 880,-162.57"/>
<path fill="none" stroke="black" d="M697.91,-368.88C743.13,-360.95 814.17,-342.65 861,-302.04 874.81,-290.06 872.95,-282.43 880,-265.56"/>
</g>
<!-- module_4_src_app_pages&#45;&gt;module_5_tests_test_integration_end_to_end -->
<g id="edge26" class="edge">
<title>module_4_src_app_pages&#45;&gt;module_5_tests_test_integration_end_to_end</title><style>.edge>path:hover{stroke-width:8}</style>
<path fill="none" stroke="black" d="M650.04,-337.81C648,-316.61 646.77,-289.49 650,-265.56"/>
</g>
<!-- module_4_src_load_data&#45;&gt;module_4_src_app_pages -->
<g id="edge27" class="edge">
<title>module_4_src_load_data&#45;&gt;module_4_src_app_pages</title><style>.edge>path:hover{stroke-width:8}</style>
<path fill="none" stroke="black" d="M696.87,-485.79C697.12,-474.56 696.79,-461.62 695,-449.99"/>
</g>
<!-- module_4_src_load_data&#45;&gt;module_5_tests_test_db_insert -->
<g id="edge28" class="edge">
<title>module_4_src_load_data&#45;&gt;module_5_tests_test_db_insert</title><style>.edge>path:hover{stroke-width:8}</style>
<path fill="none" stroke="black" d="M804,-448.99C835.63,-414.67 869.03,-421.88 880,-376.52"/>
<path fill="none" stroke="black" d="M731.81,-499.41C754.89,-488.45 783.96,-471.75 804,-449.99"/>
<path fill="none" stroke="black" d="M880,-374.52C891.38,-327.45 861.31,-310.24 880,-265.56"/>
</g>
<!-- module_4_src_query_data -->
<g id="node10" class="node">
<title>module_4_src_query_data</title><style>.edge>path:hover{stroke-width:8}</style>
<ellipse fill="#64c040" stroke="black" cx="475" cy="-515.52" rx="45.25" ry="29.52"/>
<text xml:space="preserve" text-anchor="middle" x="475" y="-522.89" font-family="Helvetica,sans-Serif" font-size="10.00" fill="#000000">module_4.</text>
<text xml:space="preserve" text-anchor="middle" x="475" y="-511.64" font-family="Helvetica,sans-Serif" font-size="10.00" fill="#000000">src.</text>
<text xml:space="preserve" text-anchor="middle" x="475" y="-500.39" font-family="Helvetica,sans-Serif" font-size="10.00" fill="#000000">query_data</text>
</g>
<!-- module_4_src_query_data&#45;&gt;module_4_src_app_pages -->
<g id="edge29" class="edge">
<title>module_4_src_query_data&#45;&gt;module_4_src_app_pages</title><style>.edge>path:hover{stroke-width:8}</style>
<path fill="none" stroke="black" d="M475,-448.99C476.48,-445.8 552.62,-415.93 605.39,-395.55"/>
<polygon fill="#64c040" stroke="black" points="606.45,-398.89 614.52,-392.03 603.93,-392.36 606.45,-398.89"/>
</g>
<!-- module_4_src_query_data&#45;&gt;module_5_tests_test_integration_end_to_end -->
<g id="edge30" class="edge">
<title>module_4_src_query_data&#45;&gt;module_5_tests_test_integration_end_to_end</title><style>.edge>path:hover{stroke-width:8}</style>
<path fill="none" stroke="black" d="M475,-448.99C509.33,-375.02 470,-347.12 470,-265.56 499,0 499,0 470,-160.57 470,-126.44 488.29,-92.2 505.62,-67.43"/>
<polygon fill="#64c040" stroke="black" points="508.23,-69.79 511.28,-59.64 502.57,-65.67 508.23,-69.79"/>
<path fill="none" stroke="black" d="M469.7,-485.98C468.84,-474.29 469.64,-460.96 475,-449.99"/>
</g>
<!-- module_5_src -->
<g id="node11" class="node">
<title>module_5_src</title><style>.edge>path:hover{stroke-width:8}</style>
<ellipse fill="#3bce8f" stroke="black" cx="306" cy="-161.57" rx="44.08" ry="18"/>
<text xml:space="preserve" text-anchor="middle" x="306" y="-157.69" font-family="Helvetica,sans-Serif" font-size="10.00" fill="#000000">module_5.src</text>
</g>
<!-- module_5_tests_conftest -->
<g id="node17" class="node">
<title>module_5_tests_conftest</title><style>.edge>path:hover{stroke-width:8}</style>
<ellipse fill="#3a8866" stroke="black" cx="342" cy="-29.52" rx="43.13" ry="29.52"/>
<text xml:space="preserve" text-anchor="middle" x="342" y="-36.9" font-family="Helvetica,sans-Serif" font-size="10.00" fill="#ffffff">module_5.</text>
<text xml:space="preserve" text-anchor="middle" x="342" y="-25.65" font-family="Helvetica,sans-Serif" font-size="10.00" fill="#ffffff">tests.</text>
<text xml:space="preserve" text-anchor="middle" x="342" y="-14.4" font-family="Helvetica,sans-Serif" font-size="10.00" fill="#ffffff">conftest</text>
</g>
<!-- module_5_src&#45;&gt;module_5_tests_conftest -->
<g id="edge31" class="edge">
<title>module_5_src&#45;&gt;module_5_tests_conftest</title><style>.edge>path:hover{stroke-width:8}</style>
<path fill="none" stroke="black" d="M301.08,-143.4C298.14,-129.43 296.6,-109.84 306,-96.04"/>
</g>
<!-- module_5_src_app -->
<g id="node12" class="node">
<title>module_5_src_app</title><style>.edge>path:hover{stroke-width:8}</style>
<ellipse fill="#47c28d" stroke="black" cx="201" cy="-161.57" rx="43.13" ry="29.52"/>
<text xml:space="preserve" text-anchor="middle" x="201" y="-168.94" font-family="Helvetica,sans-Serif" font-size="10.00" fill="#000000">module_5.</text>
<text xml:space="preserve" text-anchor="middle" x="201" y="-157.69" font-family="Helvetica,sans-Serif" font-size="10.00" fill="#000000">src.</text>
<text xml:space="preserve" text-anchor="middle" x="201" y="-146.44" font-family="Helvetica,sans-Serif" font-size="10.00" fill="#000000">app</text>
</g>
<!-- module_5_src_app&#45;&gt;module_5_tests_conftest -->
<g id="edge32" class="edge">
<title>module_5_src_app&#45;&gt;module_5_tests_conftest</title><style>.edge>path:hover{stroke-width:8}</style>
<path fill="none" stroke="black" d="M234.12,-142.04C263.1,-125.53 301.29,-102.96 306,-96.04"/>
</g>
<!-- module_5_src_app_app&#45;&gt;module_5_tests_conftest -->
<g id="edge33" class="edge">
<title>module_5_src_app_app&#45;&gt;module_5_tests_conftest</title><style>.edge>path:hover{stroke-width:8}</style>
<path fill="none" stroke="black" d="M328.75,-243.03C355.2,-224.84 385.43,-196.01 378,-162.57"/>
<path fill="none" stroke="black" d="M378,-160.57C374.7,-145.7 369.72,-142.86 359,-132.04 338.96,-111.82 289.97,-119.58 306,-96.04"/>
</g>
<!-- module_5_src_app_pages&#45;&gt;module_5_src_app_app -->
<g id="edge34" class="edge">
<title>module_5_src_app_pages&#45;&gt;module_5_src_app_app</title><style>.edge>path:hover{stroke-width:8}</style>
<path fill="none" stroke="black" d="M293,-337.63C293,-330 293,-321.85 293,-313.88"/>
<polygon fill="#267352" stroke="black" points="296.5,-313.93 293,-303.93 289.5,-313.93 296.5,-313.93"/>
</g>
<!-- module_5_src_load_data&#45;&gt;module_5_src_app_pages -->
<g id="edge35" class="edge">
<title>module_5_src_load_data&#45;&gt;module_5_src_app_pages</title><style>.edge>path:hover{stroke-width:8}</style>
<path fill="none" stroke="black" d="M223.85,-495.05C201.93,-480.14 177.56,-460.41 184,-449.99"/>
</g>
<!-- module_5_src_query_data -->
<g id="node16" class="node">
<title>module_5_src_query_data</title><style>.edge>path:hover{stroke-width:8}</style>
<ellipse fill="#40c089" stroke="black" cx="111" cy="-515.52" rx="45.25" ry="29.52"/>
<text xml:space="preserve" text-anchor="middle" x="111" y="-522.89" font-family="Helvetica,sans-Serif" font-size="10.00" fill="#000000">module_5.</text>
<text xml:space="preserve" text-anchor="middle" x="111" y="-511.64" font-family="Helvetica,sans-Serif" font-size="10.00" fill="#000000">src.</text>
<text xml:space="preserve" text-anchor="middle" x="111" y="-500.39" font-family="Helvetica,sans-Serif" font-size="10.00" fill="#000000">query_data</text>
</g>
<!-- module_5_src_query_data&#45;&gt;module_5_src_app_pages -->
<g id="edge36" class="edge">
<title>module_5_src_query_data&#45;&gt;module_5_src_app_pages</title><style>.edge>path:hover{stroke-width:8}</style>
<path fill="none" stroke="black" d="M141.88,-493.85C156.62,-482.52 173.33,-467.26 184,-449.99"/>
</g>
<!-- module_5_tests_test_analysis_format -->
<g id="node18" class="node">
<title>module_5_tests_test_analysis_format</title><style>.edge>path:hover{stroke-width:8}</style>
<ellipse fill="#4cb387" stroke="black" cx="855" cy="-29.52" rx="75.48" ry="29.52"/>
<text xml:space="preserve" text-anchor="middle" x="855" y="-36.9" font-family="Helvetica,sans-Serif" font-size="10.00" fill="#000000">module_5.</text>
<text xml:space="preserve" text-anchor="middle" x="855" y="-25.65" font-family="Helvetica,sans-Serif" font-size="10.00" fill="#000000">tests.</text>
<text xml:space="preserve" text-anchor="middle" x="855" y="-14.4" font-family="Helvetica,sans-Serif" font-size="10.00" fill="#000000">test_analysis_format</text>
</g>
<!-- module_5_tests_test_buttons -->
<g id="node19" class="node">
<title>module_5_tests_test_buttons</title><style>.edge>path:hover{stroke-width:8}</style>
<ellipse fill="#4cb387" stroke="black" cx="998" cy="-29.52" rx="49.5" ry="29.52"/>
<text xml:space="preserve" text-anchor="middle" x="998" y="-36.9" font-family="Helvetica,sans-Serif" font-size="10.00" fill="#000000">module_5.</text>
<text xml:space="preserve" text-anchor="middle" x="998" y="-25.65" font-family="Helvetica,sans-Serif" font-size="10.00" fill="#000000">tests.</text>
<text xml:space="preserve" text-anchor="middle" x="998" y="-14.4" font-family="Helvetica,sans-Serif" font-size="10.00" fill="#000000">test_buttons</text>
</g>
<!-- module_5_tests_test_flask_page -->
<g id="node21" class="node">
<title>module_5_tests_test_flask_page</title><style>.edge>path:hover{stroke-width:8}</style>
<ellipse fill="#4cb387" stroke="black" cx="1126" cy="-29.52" rx="60.1" ry="29.52"/>
<text xml:space="preserve" text-anchor="middle" x="1126" y="-36.9" font-family="Helvetica,sans-Serif" font-size="10.00" fill="#000000">module_5.</text>
<text xml:space="preserve" text-anchor="middle" x="1126" y="-25.65" font-family="Helvetica,sans-Serif" font-size="10.00" fill="#000000">tests.</text>
<text xml:space="preserve" text-anchor="middle" x="1126" y="-14.4" font-family="Helvetica,sans-Serif" font-size="10.00" fill="#000000">test_flask_page</text>
</g>
<!-- psycopg -->
<g id="node23" class="node">
<title>psycopg</title><style>.edge>path:hover{stroke-width:8}</style>
<ellipse fill="#0691f9" stroke="black" cx="376" cy="-708.04" rx="31.21" ry="18"/>
<text xml:space="preserve" text-anchor="middle" x="376" y="-704.16" font-family="Helvetica,sans-Serif" font-size="10.00" fill="#ffffff">psycopg</text>
</g>
<!-- psycopg&#45;&gt;module_4_src_load_data -->
<g id="edge37" class="edge">
<title>psycopg&#45;&gt;module_4_src_load_data</title><style>.edge>path:hover{stroke-width:8}</style>
<path fill="none" stroke="black" d="M403.34,-698.7C431.32,-689.63 475.58,-673.75 511,-654.04 566.89,-622.92 624.98,-576.81 660.57,-546.71"/>
<polygon fill="#0691f9" stroke="black" points="662.63,-549.55 667.97,-540.4 658.09,-544.22 662.63,-549.55"/>
</g>
<!-- psycopg&#45;&gt;module_4_src_query_data -->
<g id="edge38" class="edge">
<title>psycopg&#45;&gt;module_4_src_query_data</title><style>.edge>path:hover{stroke-width:8}</style>
<path fill="none" stroke="black" d="M405.94,-702.43C433.35,-696.45 472.39,-683.1 491,-654.04 509.85,-624.6 502.12,-584.23 491.93,-554.85"/>
<polygon fill="#0691f9" stroke="black" points="495.25,-553.74 488.48,-545.59 488.69,-556.18 495.25,-553.74"/>
</g>
<!-- psycopg&#45;&gt;module_5_src_app_pages -->
<g id="edge39" class="edge">
<title>psycopg&#45;&gt;module_5_src_app_pages</title><style>.edge>path:hover{stroke-width:8}</style>
<path fill="none" stroke="black" d="M111,-581.04C112.84,-552.25 144.61,-565.44 165,-545.04 175.77,-534.26 183.97,-531.75 184,-516.52"/>
<path fill="none" stroke="black" d="M184,-514.52C184.05,-485.84 168.93,-474.39 184,-449.99"/>
</g>
<!-- psycopg&#45;&gt;module_5_src_load_data -->
<g id="edge40" class="edge">
<title>psycopg&#45;&gt;module_5_src_load_data</title><style>.edge>path:hover{stroke-width:8}</style>
<path fill="none" stroke="black" d="M347.5,-700.43C322.49,-693.17 286.94,-679.08 266,-654.04 243.59,-627.23 243.15,-586.33 246.91,-556.09"/>
<polygon fill="#0691f9" stroke="black" points="250.32,-556.98 248.31,-546.57 243.39,-555.96 250.32,-556.98"/>
</g>
<!-- psycopg&#45;&gt;module_5_src_query_data -->
<g id="edge41" class="edge">
<title>psycopg&#45;&gt;module_5_src_query_data</title><style>.edge>path:hover{stroke-width:8}</style>
<path fill="none" stroke="black" d="M111,-581.04C111.5,-573.23 111.73,-564.87 111.79,-556.85"/>
<polygon fill="#0691f9" stroke="black" points="115.29,-556.96 111.79,-546.96 108.29,-556.96 115.29,-556.96"/>
</g>
<!-- psycopg&#45;&gt;module_5_tests_conftest -->
<g id="edge42" class="edge">
<title>psycopg&#45;&gt;module_5_tests_conftest</title><style>.edge>path:hover{stroke-width:8}</style>
<path fill="none" stroke="black" d="M111,-581.04C112.84,-552.25 70.61,-570.47 57,-545.04 44.62,-521.9 53.67,-512.02 57,-485.99 77.61,-324.77 32.42,-245.3 149,-132.04 200.35,-82.16 265.7,-155.21 306,-96.04"/>
<path fill="none" stroke="black" d="M306,-95.04C311.76,-86.45 317.46,-76.87 322.57,-67.77"/>
<polygon fill="#0691f9" stroke="black" points="325.58,-69.56 327.34,-59.11 319.45,-66.19 325.58,-69.56"/>
<path fill="none" stroke="black" d="M344.91,-704.82C284.23,-699.83 153.29,-685.61 123,-654.04 100.54,-630.63 107.64,-614.3 111,-582.04"/>
</g>
<!-- psycopg_sql -->
<g id="node24" class="node">
<title>psycopg_sql</title><style>.edge>path:hover{stroke-width:8}</style>
<ellipse fill="#538cb6" stroke="black" cx="173" cy="-636.04" rx="40.53" ry="18"/>
<text xml:space="preserve" text-anchor="middle" x="173" y="-632.16" font-family="Helvetica,sans-Serif" font-size="10.00" fill="#000000">psycopg.sql</text>
</g>
<!-- psycopg_sql&#45;&gt;module_5_src_app_pages -->
<g id="edge43" class="edge">
<title>psycopg_sql&#45;&gt;module_5_src_app_pages</title><style>.edge>path:hover{stroke-width:8}</style>
<path fill="none" stroke="black" d="M175.69,-617.81C179.03,-594.78 184.27,-552.68 184,-516.52"/>
</g>
<!-- pytest -->
<g id="node25" class="node">
<title>pytest</title><style>.edge>path:hover{stroke-width:8}</style>
<ellipse fill="#5516f3" stroke="black" cx="938" cy="-264.56" rx="27" ry="18"/>
<text xml:space="preserve" text-anchor="middle" x="938" y="-260.69" font-family="Helvetica,sans-Serif" font-size="10.00" fill="#ffffff">pytest</text>
</g>
<!-- pytest&#45;&gt;module_5_tests_conftest -->
<g id="edge44" class="edge">
<title>pytest&#45;&gt;module_5_tests_conftest</title><style>.edge>path:hover{stroke-width:8}</style>
<path fill="none" stroke="black" d="M917.73,-252.2C885.09,-233.81 818.97,-196.19 764,-162.57"/>
<path fill="none" stroke="black" d="M764,-160.57C738.13,-144.74 730.53,-142.34 702,-132.04 583.86,-89.42 549.39,-94.84 429,-59.04 416.63,-55.36 403.35,-51.15 390.99,-47.11"/>
<polygon fill="#5516f3" stroke="black" points="392.43,-43.9 381.84,-44.09 390.24,-50.55 392.43,-43.9"/>
</g>
<!-- pytest&#45;&gt;module_5_tests_test_analysis_format -->
<g id="edge45" class="edge">
<title>pytest&#45;&gt;module_5_tests_test_analysis_format</title><style>.edge>path:hover{stroke-width:8}</style>
<path fill="none" stroke="black" d="M998,-95.04C994.21,-86.76 955.32,-69.51 919.06,-54.93"/>
<polygon fill="#5516f3" stroke="black" points="920.42,-51.71 909.84,-51.26 917.83,-58.21 920.42,-51.71"/>
</g>
<!-- pytest&#45;&gt;module_5_tests_test_buttons -->
<g id="edge46" class="edge">
<title>pytest&#45;&gt;module_5_tests_test_buttons</title><style>.edge>path:hover{stroke-width:8}</style>
<path fill="none" stroke="black" d="M998,-95.04C994.58,-87.57 993.12,-79.07 992.78,-70.76"/>
<polygon fill="#5516f3" stroke="black" points="996.27,-70.82 992.93,-60.77 989.28,-70.71 996.27,-70.82"/>
</g>
<!-- pytest&#45;&gt;module_5_tests_test_db_insert -->
<g id="edge47" class="edge">
<title>pytest&#45;&gt;module_5_tests_test_db_insert</title><style>.edge>path:hover{stroke-width:8}</style>
<path fill="none" stroke="black" d="M951.24,-248.43C975.63,-218.64 1022.95,-150.53 998,-96.04"/>
<path fill="none" stroke="black" d="M998,-95.04C977.1,-48.44 819.97,-73.56 771,-59.04 766.47,-57.7 761.85,-56.11 757.26,-54.38"/>
<polygon fill="#5516f3" stroke="black" points="758.66,-51.17 748.08,-50.69 756.05,-57.67 758.66,-51.17"/>
</g>
<!-- pytest&#45;&gt;module_5_tests_test_flask_page -->
<g id="edge48" class="edge">
<title>pytest&#45;&gt;module_5_tests_test_flask_page</title><style>.edge>path:hover{stroke-width:8}</style>
<path fill="none" stroke="black" d="M998,-95.04C996.16,-91.01 1035.99,-71.49 1071.69,-54.97"/>
<polygon fill="#5516f3" stroke="black" points="1073.11,-58.17 1080.73,-50.81 1070.18,-51.81 1073.11,-58.17"/>
</g>
<!-- pytest&#45;&gt;module_5_tests_test_integration_end_to_end -->
<g id="edge49" class="edge">
<title>pytest&#45;&gt;module_5_tests_test_integration_end_to_end</title><style>.edge>path:hover{stroke-width:8}</style>
<path fill="none" stroke="black" d="M764,-160.57C738.5,-144.97 764.66,-118.56 745,-96.04"/>
</g>
<!-- requests -->
<g id="node26" class="node">
<title>requests</title><style>.edge>path:hover{stroke-width:8}</style>
<ellipse fill="#e619c9" stroke="black" cx="450" cy="-636.04" rx="31.66" ry="18"/>
<text xml:space="preserve" text-anchor="middle" x="450" y="-632.16" font-family="Helvetica,sans-Serif" font-size="10.00" fill="#ffffff">requests</text>
</g>
<!-- requests&#45;&gt;module_4_src_app -->
<g id="edge50" class="edge">
<title>requests&#45;&gt;module_4_src_app</title><style>.edge>path:hover{stroke-width:8}</style>
<path fill="none" stroke="black" d="M432,-448.99C433.35,-412.96 502.88,-339.27 545.82,-297.08"/>
<polygon fill="#e619c9" stroke="black" points="548.23,-299.62 552.95,-290.14 543.34,-294.61 548.23,-299.62"/>
</g>
<!-- requests&#45;&gt;module_4_src_app_pages -->
<g id="edge51" class="edge">
<title>requests&#45;&gt;module_4_src_app_pages</title><style>.edge>path:hover{stroke-width:8}</style>
<path fill="none" stroke="black" d="M477.28,-626.38C515.26,-614.03 580.1,-591.8 586,-582.04"/>
</g>
<!-- requests&#45;&gt;module_5_src_app_pages -->
<g id="edge52" class="edge">
<title>requests&#45;&gt;module_5_src_app_pages</title><style>.edge>path:hover{stroke-width:8}</style>
<path fill="none" stroke="black" d="M432,-448.99C435.25,-428.51 385.38,-406.73 344.48,-392.46"/>
<polygon fill="#e619c9" stroke="black" points="345.8,-389.21 335.2,-389.31 343.54,-395.84 345.8,-389.21"/>
<path fill="none" stroke="black" d="M442.81,-618.17C435.64,-600.37 425.13,-571.31 421,-545.04 416.93,-519.11 417.12,-511.95 421,-485.99 423.47,-469.45 429.38,-466.52 432,-449.99"/>
</g>
<!-- requests&#45;&gt;module_5_tests_conftest -->
<g id="edge53" class="edge">
<title>requests&#45;&gt;module_5_tests_conftest</title><style>.edge>path:hover{stroke-width:8}</style>
<path fill="none" stroke="black" d="M432,-448.99C417.68,-320.24 406.1,-289.02 378,-162.57"/>
</g>
</g>
</svg>
